<?xml version="1.0" encoding="UTF-8" standalone="no"?>
<svg
   xmlns:dc="http://purl.org/dc/elements/1.1/"
   xmlns:cc="http://creativecommons.org/ns#"
   xmlns:rdf="http://www.w3.org/1999/02/22-rdf-syntax-ns#"
   xmlns:svg="http://www.w3.org/2000/svg"
   xmlns="http://www.w3.org/2000/svg"
   xmlns:xlink="http://www.w3.org/1999/xlink"
   xmlns:sodipodi="http://sodipodi.sourceforge.net/DTD/sodipodi-0.dtd"
   xmlns:inkscape="http://www.inkscape.org/namespaces/inkscape"
   width="446.09735"
   height="345.95007"
   viewBox="0 0 356.87788 276.76006"
   version="1.1"
   id="svg3396"
   inkscape:version="0.48.4 r9939"
   sodipodi:docname="logo.svg">
  <metadata
     id="metadata3588">
    <rdf:RDF>
      <cc:Work
         rdf:about="">
        <dc:format>image/svg+xml</dc:format>
        <dc:type
           rdf:resource="http://purl.org/dc/dcmitype/StillImage" />
        <dc:title />
      </cc:Work>
    </rdf:RDF>
  </metadata>
  <defs
     id="defs3586">
    <linearGradient
       inkscape:collect="always"
       id="linearGradient3257">
      <stop
         style="stop-color:#30b54b;stop-opacity:1"
         offset="0"
         id="stop3259" />
      <stop
         style="stop-color:#67bf67;stop-opacity:1"
         offset="1"
         id="stop3261" />
    </linearGradient>
    <linearGradient
       inkscape:collect="always"
       id="linearGradient3242">
      <stop
         style="stop-color:#0c7e3e;stop-opacity:1"
         offset="0"
         id="stop3244" />
      <stop
         style="stop-color:#699c6c;stop-opacity:1"
         offset="1"
         id="stop3246" />
    </linearGradient>
    <linearGradient
       inkscape:collect="always"
       id="linearGradient3227">
      <stop
         style="stop-color:#2fb54a;stop-opacity:1"
         offset="0"
         id="stop3229" />
      <stop
         style="stop-color:#6ac16b;stop-opacity:1"
         offset="1"
         id="stop3231" />
    </linearGradient>
    <linearGradient
       id="linearGradient3188"
       inkscape:collect="always">
      <stop
         id="stop3190"
         offset="0"
         style="stop-color:#a52788;stop-opacity:1" />
      <stop
         id="stop3192"
         offset="1"
         style="stop-color:#be3c92;stop-opacity:1" />
    </linearGradient>
    <linearGradient
       id="linearGradient3161"
       inkscape:collect="always">
      <stop
         id="stop3163"
         offset="0"
         style="stop-color:#81d5ef;stop-opacity:1" />
      <stop
         id="stop3165"
         offset="1"
         style="stop-color:#b9e6f6;stop-opacity:1" />
    </linearGradient>
    <linearGradient
       inkscape:collect="always"
       id="linearGradient3151">
      <stop
         style="stop-color:#0a83a1;stop-opacity:1"
         offset="0"
         id="stop3153" />
      <stop
         style="stop-color:#135d71;stop-opacity:1"
         offset="1"
         id="stop3155" />
    </linearGradient>
    <linearGradient
       id="linearGradient3141"
       inkscape:collect="always">
      <stop
         id="stop3143"
         offset="0"
         style="stop-color:#0ca5c8;stop-opacity:1" />
      <stop
         id="stop3145"
         offset="1"
         style="stop-color:#99cbe0;stop-opacity:1" />
    </linearGradient>
    <linearGradient
       inkscape:collect="always"
       id="linearGradient3129">
      <stop
         style="stop-color:#e4e534;stop-opacity:1"
         offset="0"
         id="stop3131" />
      <stop
         style="stop-color:#ecee89;stop-opacity:1"
         offset="1"
         id="stop3133" />
    </linearGradient>
    <linearGradient
       inkscape:collect="always"
       id="linearGradient3120">
      <stop
         style="stop-color:#e4e534;stop-opacity:1"
         offset="0"
         id="stop3122" />
      <stop
         style="stop-color:#ecee8b;stop-opacity:1"
         offset="1"
         id="stop3124" />
    </linearGradient>
    <linearGradient
       inkscape:collect="always"
       id="linearGradient3111">
      <stop
         style="stop-color:#c32929;stop-opacity:1"
         offset="0"
         id="stop3113" />
      <stop
         style="stop-color:#da534e;stop-opacity:1"
         offset="1"
         id="stop3115" />
    </linearGradient>
    <linearGradient
       id="linearGradient3103">
      <stop
         style="stop-color:#c32929;stop-opacity:1;"
         offset="0"
         id="stop3105" />
      <stop
         style="stop-color:#c32929;stop-opacity:1;"
         offset="1"
         id="stop3107" />
    </linearGradient>
    <linearGradient
       id="linearGradient3095">
      <stop
         style="stop-color:#b3b3b3;stop-opacity:1;"
         offset="0"
         id="stop3097" />
      <stop
         style="stop-color:#b3b3b3;stop-opacity:0;"
         offset="1"
         id="stop3099" />
    </linearGradient>
    <linearGradient
       inkscape:collect="always"
       xlink:href="#linearGradient3111"
       id="linearGradient3117"
       x1="-29.108305"
       y1="61.992691"
       x2="-56.41626"
       y2="61.992691"
       gradientUnits="userSpaceOnUse"
       gradientTransform="translate(58.670715,5.5177014)" />
    <linearGradient
       inkscape:collect="always"
       xlink:href="#linearGradient3120"
       id="linearGradient3126"
       x1="438.52393"
       y1="47.1339"
       x2="326.41931"
       y2="47.1339"
       gradientUnits="userSpaceOnUse"
       gradientTransform="matrix(0.8,0,0,0.8,2.2671198,2.0600364)" />
    <linearGradient
       inkscape:collect="always"
       xlink:href="#linearGradient3129"
       id="linearGradient3135"
       x1="439.14639"
       y1="105.0228"
       x2="326.49069"
       y2="105.0228"
       gradientUnits="userSpaceOnUse"
       gradientTransform="matrix(0.8,0,0,0.8,2.2671198,2.0600364)" />
    <linearGradient
       inkscape:collect="always"
       xlink:href="#linearGradient3141"
       id="linearGradient3139"
       gradientUnits="userSpaceOnUse"
       gradientTransform="matrix(1.0296669,0,0,1.0889744,62.650747,150.38669)"
       x1="-30.593803"
       y1="44.291744"
       x2="-56.429497"
       y2="44.291744" />
    <linearGradient
       inkscape:collect="always"
       xlink:href="#linearGradient3151"
       id="linearGradient3149"
       gradientUnits="userSpaceOnUse"
       gradientTransform="matrix(1.0340159,0,0,0.84782564,-112.53851,141.28392)"
       x1="-43.156567"
       y1="113.36453"
       x2="-41.478733"
       y2="-6.9734106" />
    <linearGradient
       inkscape:collect="always"
       xlink:href="#linearGradient3161"
       id="linearGradient3159"
       gradientUnits="userSpaceOnUse"
       gradientTransform="matrix(1.0340159,0,0,0.84782564,-138.93506,-104.04965)"
       x1="-56.010876"
       y1="50.761463"
       x2="-28.741835"
       y2="47.642143" />
    <linearGradient
       inkscape:collect="always"
       xlink:href="#linearGradient3111"
       id="linearGradient3169"
       gradientUnits="userSpaceOnUse"
       gradientTransform="matrix(1.0626178,0,0,1.0869747,175.3606,150.69671)"
       x1="-29.108305"
       y1="61.992691"
       x2="-56.41626"
       y2="61.992691" />
    <linearGradient
       inkscape:collect="always"
       xlink:href="#linearGradient3188"
       id="linearGradient3186"
       gradientUnits="userSpaceOnUse"
       gradientTransform="matrix(1.0626178,0,0,1.0869747,221.41616,149.79508)"
       x1="-29.108305"
       y1="61.992691"
       x2="-56.41626"
       y2="61.992691" />
    <linearGradient
       inkscape:collect="always"
       xlink:href="#linearGradient3188"
       id="linearGradient3214"
       gradientUnits="userSpaceOnUse"
       gradientTransform="matrix(0,-1.0736897,0.54165118,0,191.80441,116.56761)"
       x1="-87.376328"
       y1="113.3448"
       x2="-87.376328"
       y2="61.98801" />
    <linearGradient
       inkscape:collect="always"
       xlink:href="#linearGradient3227"
       id="linearGradient3233"
       x1="411.44687"
       y1="226.40273"
       x2="411.44687"
       y2="179.53125"
       gradientUnits="userSpaceOnUse"
       gradientTransform="matrix(0.8,0,0,0.8,2.2671198,2.0600364)" />
    <linearGradient
       inkscape:collect="always"
       xlink:href="#linearGradient3242"
       id="linearGradient3248"
       x1="397.4415"
       y1="339.06821"
       x2="397.4415"
       y2="243.81203"
       gradientUnits="userSpaceOnUse"
       gradientTransform="matrix(0.8,0,0,0.8,2.2671198,2.0600364)" />
    <linearGradient
       inkscape:collect="always"
       xlink:href="#linearGradient3257"
       id="linearGradient3263"
       x1="364.76227"
       y1="339.06821"
       x2="364.76227"
       y2="292.4057"
       gradientUnits="userSpaceOnUse"
       gradientTransform="matrix(0.8,0,0,0.8,2.2671198,2.0600364)" />
    <linearGradient
       inkscape:collect="always"
       xlink:href="#linearGradient3120"
       id="linearGradient3987"
       gradientUnits="userSpaceOnUse"
       x1="438.52393"
       y1="47.1339"
       x2="326.41931"
       y2="47.1339"
       gradientTransform="translate(-77.585611,-454.71664)" />
    <linearGradient
       inkscape:collect="always"
       xlink:href="#linearGradient3129"
       id="linearGradient3989"
       gradientUnits="userSpaceOnUse"
       x1="439.14639"
       y1="105.0228"
       x2="326.49069"
       y2="105.0228"
       gradientTransform="matrix(0.8,0,0,0.8,-62.068489,-363.77331)" />
    <linearGradient
       inkscape:collect="always"
       xlink:href="#linearGradient3227"
       id="linearGradient3991"
       gradientUnits="userSpaceOnUse"
       x1="411.44687"
       y1="226.40273"
       x2="411.44687"
       y2="179.53125"
       gradientTransform="matrix(0.8,0,0,0.8,-62.068489,-363.77331)" />
    <linearGradient
       inkscape:collect="always"
       xlink:href="#linearGradient3111"
       id="linearGradient3993"
       gradientUnits="userSpaceOnUse"
       gradientTransform="matrix(1.3282722,0,0,1.3587184,138.78124,-268.9208)"
       x1="-29.108305"
       y1="61.992691"
       x2="-56.41626"
       y2="61.992691" />
    <linearGradient
       inkscape:collect="always"
       xlink:href="#linearGradient3188"
       id="linearGradient3995"
       gradientUnits="userSpaceOnUse"
       gradientTransform="matrix(1.0626178,0,0,1.0869747,157.08055,-216.03827)"
       x1="-29.108305"
       y1="61.992691"
       x2="-56.41626"
       y2="61.992691" />
    <linearGradient
       inkscape:collect="always"
       xlink:href="#linearGradient3188"
       id="linearGradient3997"
       gradientUnits="userSpaceOnUse"
       gradientTransform="matrix(0,-1.0736897,0.54165118,0,127.4688,-249.26574)"
       x1="-87.376328"
       y1="113.3448"
       x2="-87.376328"
       y2="61.98801" />
    <linearGradient
       inkscape:collect="always"
       xlink:href="#linearGradient3151"
       id="linearGradient3999"
       gradientUnits="userSpaceOnUse"
       gradientTransform="matrix(0.76328621,-1.0430732,0.85525206,0.62584494,-20.971323,-239.47493)"
       x1="-43.156567"
       y1="113.36453"
       x2="-41.478733"
       y2="-6.9734106" />
    <linearGradient
       inkscape:collect="always"
       xlink:href="#linearGradient3161"
       id="linearGradient4001"
       gradientUnits="userSpaceOnUse"
       gradientTransform="matrix(1.0340159,0,0,0.84782564,197.63862,53.084902)"
       x1="-56.010876"
       y1="50.761463"
       x2="-28.741835"
       y2="47.642143" />
    <linearGradient
       inkscape:collect="always"
       xlink:href="#linearGradient3242"
       id="linearGradient4003"
       gradientUnits="userSpaceOnUse"
       x1="397.4415"
       y1="339.06821"
       x2="397.4415"
       y2="243.81203"
       gradientTransform="matrix(0.8,0,0,0.8,-62.068489,-363.77331)" />
    <linearGradient
       inkscape:collect="always"
       xlink:href="#linearGradient3141"
       id="linearGradient4005"
       gradientUnits="userSpaceOnUse"
       gradientTransform="matrix(1.0296669,0,0,1.0889744,-1.6848594,-215.44666)"
       x1="-30.593803"
       y1="44.291744"
       x2="-56.429497"
       y2="44.291744" />
    <linearGradient
       inkscape:collect="always"
       xlink:href="#linearGradient3257"
       id="linearGradient4007"
       gradientUnits="userSpaceOnUse"
       x1="364.76227"
       y1="339.06821"
       x2="364.76227"
       y2="292.4057"
       gradientTransform="matrix(0.8,0,0,0.8,-62.068489,-363.77331)" />
    <linearGradient
       inkscape:collect="always"
       xlink:href="#linearGradient3111"
       id="linearGradient4009"
       gradientUnits="userSpaceOnUse"
       gradientTransform="matrix(1.25,0,0,1.25,-7.081124,-450.39456)"
       x1="-29.108305"
       y1="61.992691"
       x2="-56.41626"
       y2="61.992691" />
  </defs>
  <sodipodi:namedview
     pagecolor="#ffffff"
     bordercolor="#666666"
     borderopacity="1"
     objecttolerance="10"
     gridtolerance="10"
     guidetolerance="10"
     inkscape:pageopacity="0"
     inkscape:pageshadow="2"
     inkscape:window-width="1366"
     inkscape:window-height="744"
     id="namedview3584"
     showgrid="false"
     inkscape:zoom="1"
     inkscape:cx="222.74511"
     inkscape:cy="172.98897"
     inkscape:window-x="0"
     inkscape:window-y="24"
     inkscape:window-maximized="1"
     inkscape:current-layer="svg3396"
     fit-margin-top="0"
     fit-margin-left="0"
     fit-margin-right="0"
     fit-margin-bottom="0"
     inkscape:snap-bbox="true"
     inkscape:bbox-nodes="true"
     inkscape:bbox-paths="true"
     inkscape:snap-bbox-edge-midpoints="true"
     inkscape:snap-bbox-midpoints="true" />
  <g
     id="g4019"
     transform="translate(64.025,366.18063)"
     style="fill:none;stroke:#ffffff;stroke-width:4.80000019;stroke-miterlimit:4;stroke-opacity:1;stroke-dasharray:none">
    <path
       transform="scale(0.8,0.8)"
       id="path3867"
       d="m 306.375,-454.71875 c -4.48916,0.0487 -8.99844,0.36094 -13.4375,0.65625 -3.0375,0.5375 -5.9625,1.425 -8.9375,2.1875 -6.8,1.2625 -12.625,5.025 -18.125,9 -7.7625,5.3 -12.9625,13.825 -15.5,22.75 -1.6125,8.975 -2.0375,18.28125 -0.9375,27.34375 0.0119,0.0195 0.0193,0.043 0.0312,0.0625 -0.0248,8.05837 -0.037,16.12914 0,24.1875 -0.008,0.0116 -0.0228,0.0196 -0.0312,0.0312 -0.6375,11.5625 -1.7,23.96875 3.5625,34.71875 4.25,9.6875 12.24375,17.90625 22.28125,21.53125 3.25,2.1125 7.11875,2.90625 10.78125,4.03125 11.2625,2.8875 23.2,3.55 34.625,1.125 14.275,-2.6125 28.89375,-9.64375 36.03125,-22.90625 7.11934,-11.54082 5.76959,-25.61468 5.21875,-38.53125 0.2375,-7.625 0.0312,-15.26249 0.15625,-22.875 -1.0875,1.1625 -2.26934,2.33262 -3.5,3.40625 1.22832,-1.07539 2.38125,-2.24375 3.46875,-3.40625 -0.1,-13 2.25,-27.29375 -5.0625,-38.90625 -6,-10.7875 -16.875,-18.05 -28.5625,-21.4375 -7.13281,-2.42969 -14.58058,-3.05005 -22.0625,-2.96875 z m -1.21875,30.75 c 2.17485,-0.0521 4.34844,0.0641 6.5,0.3125 5.55,1.5625 11.08125,4.58125 13.96875,9.78125 4.2125,6.7125 2.8375,14.925 3.125,22.4375 0.005,0.005 0.0259,-0.005 0.0312,0 0.005,0.005 -0.005,0.0264 0,0.0312 0.0374,7.56459 0.025,15.1354 0,22.6875 -0.2375,6.0625 0.56875,12.36875 -1.40625,18.21875 -2.275,6.45 -8.1,11 -14.375,13.25 -7.2625,1.0875 -14.875,0.2875 -21.4375,-3.125 -3.7625,-3.3125 -7.1375,-7.4375 -8.1875,-12.4375 -1.0125,-4.8 -0.71875,-9.73125 -0.90625,-14.59375 -0.1375,-8.3625 -0.0688,-16.69999 0.0312,-25.0625 0.005,-0.007 -0.005,-0.0244 0,-0.0312 0.0875,-5.6 -0.40625,-11.33125 1.21875,-16.78125 1.725,-5.525 6.075,-9.7625 10.75,-12.9375 3.44531,-1.11719 7.06274,-1.66309 10.6875,-1.75 z M 275,-385 c -0.54914,0.33371 -1.13084,0.6369 -1.71875,0.90625 0.58743,-0.26983 1.17028,-0.57187 1.71875,-0.90625 z m 59.59375,10.59375 c -0.91901,0.71373 -1.78477,1.49424 -2.625,2.3125 0.83892,-0.81782 1.70772,-1.59935 2.625,-2.3125 z"
       style="fill:none;stroke:#ffffff;stroke-width:6;stroke-miterlimit:4;stroke-opacity:1;stroke-dasharray:none"
       inkscape:connector-curvature="0" />
    <path
       transform="scale(0.8,0.8)"
       id="path3869"
       d="m -8.46875,-453.09375 c -6.032226,0.26016 -11.91875,3.89375 -15.3125,8.84375 -2.9625,4.34999 -2.575,9.83125 -2.4375,14.84375 -0.0875,34.4 0.0125,68.78749 -0.0625,103.1875 -0.125,3.9125 0.5625,8.03125 3,11.21875 5.025,7.225 15.725,8.03125 23.125,4.28125 4.7375,-2.4 7.4,-7.80625 7.4375,-12.96875 0.0875,-21.03751 -0.175,-42.1 0.125,-63.125 17.5375,22.825 35.15625,45.58749 52.53125,68.5625 3.475,4.5125 8.00625,9.41875 14.21875,9.21875 6.2875,0.7625 12.2,-2.7 16.125,-7.375 3.25,-4.025 3.61875,-9.57499 2.84375,-14.5 0.25,-35.97499 0.15,-71.9625 0.0625,-107.9375 -0.2,-10.43749 -12.10625,-16.3 -21.34375,-13.625 -6.3625,1.3125 -11.60625,7.03751 -11.84375,13.625 -0.275,21.1375 0.21875,42.29999 -0.28125,63.4375 -16.8125,-21.22501 -33.0375,-42.8625 -49.5625,-64.3125 -3.7,-4.54999 -6.6875,-10.4625 -12.625,-12.4375 -1.953125,-0.7375 -3.9892579,-1.02422 -6,-0.9375 z"
       style="fill:none;stroke:#ffffff;stroke-width:6;stroke-miterlimit:4;stroke-opacity:1;stroke-dasharray:none"
       inkscape:connector-curvature="0" />
    <path
       transform="scale(0.8,0.8)"
       id="path3873"
       d="m 130.84375,-452.09375 c -6.30462,0.10024 -12.67422,3.69141 -16,9.0625 -2.425,4.11249 -2.9125,9.13125 -2.125,13.78125 -0.4625,34.3375 -0.05,68.69374 -0.25,103.03125 -0.175,5.375 1.00625,11.425 5.46875,14.9375 7.65,5.825 20.95625,4.925 26.03125,-3.9375 1.5625,-2.525 1.96875,-5.55625 1.90625,-8.46875 -0.1,-20.91251 0.025,-41.80625 -0.0625,-62.71875 16.5625,21.7 33.23125,43.29999 49.78125,65 3.7375,4.85 7.25625,10.5875 13.34375,12.6875 6.925,2.3875 14.59375,-0.64375 19.46875,-5.71875 3.8375,-4.4 4.5875,-10.68749 3.625,-16.25 0.5,-32.6875 0.0437,-65.375 0.21875,-98.0625 -0.0375,-5.6375 0.7875,-11.86251 -2.8125,-16.6875 -3.9625,-6.2625 -12.3625,-7.21875 -19.0625,-5.96875 -6.9125,1.2625 -12.08125,8.14376 -11.78125,15.09375 -0.1,20.6625 0.2125,41.31874 -0.1875,61.96875 -15.9875,-20.27501 -31.35,-41.04375 -47.25,-61.40625 -3.9125,-4.7875 -7.01875,-10.38125 -12.03125,-14.15625 -2.55469,-1.55859 -5.41551,-2.23306 -8.28125,-2.1875 z"
       style="fill:none;stroke:#ffffff;stroke-width:6;stroke-miterlimit:4;stroke-opacity:1;stroke-dasharray:none"
       inkscape:connector-curvature="0" />
    <path
       transform="scale(0.8,0.8)"
       id="path3903"
       d="m 306.40625,-275.75 c -2.12334,0.008 -3.9927,0.19431 -5.5,0.5625 -0.15304,0.0374 -0.28854,0.0851 -0.4375,0.125 0.0724,-0.0402 0.14642,-0.0852 0.21875,-0.125 -14.7625,-1.1 -30.24375,4.03125 -40.34375,15.09375 -12.725,14.6 -15.075,36.6625 -7.5625,54.25 4.9125,10.7875 14.29375,19.25 25.46875,23.1875 11.875,5 24.95,2.74375 37.4375,3.59375 -6.52132,-0.74032 -13.19733,-0.22891 -19.65625,-1.4375 6.82672,1.19178 14.77736,0.50242 19.65625,1.4375 5.57587,1.06866 6.05688,2.06308 9.4375,6.0625 3.38062,3.99942 2.86157,14.78506 0.25,18.90625 -2.61157,4.12119 -3.96048,4.31149 -7.15625,5.90625 -3.19577,1.59476 -7.56875,1.6625 -11.40625,1.75 -3.31207,-0.86286 -9.41239,0.24376 -13.6875,-0.28125 -4.27512,-0.52501 -7.81426,-1.42985 -11.25,-4 -3.43574,-2.57015 -4.81125,-8.69883 -7.84375,-10.375 -4.9655,-3.70067 -10.52851,-3.7287 -15.28125,-1.84375 -4.75275,1.88495 -5.99971,3.82235 -7.84375,8.21875 -1.84404,4.3964 -2.49514,11.00254 0.0937,16.15625 3.22024,6.32145 9.94988,15.57495 19.625,19.5625 9.67511,3.98755 25.85598,4.97876 33.34375,3.625 6.7375,0.225 13.77883,-0.39105 23.28125,-2.28125 9.50244,-1.89021 24.33123,-10.46873 29.1875,-18.84375 4.85627,-8.37502 4.96423,-10.59478 5.9375,-17.09375 0.97327,-6.49897 0.92552,-14.92895 -0.4375,-20.96875 -1.36302,-6.0398 -3.03975,-10.68148 -5.90625,-15 -2.8665,-4.31852 -3.30428,-5.60521 -10.78125,-11 -7.47697,-5.39479 -22.83379,-10.31563 -35.6875,-10.34375 -4.27386,-0.009 -8.52182,0.12433 -12.59375,0.125 -0.008,-0.004 -0.0237,0.004 -0.0312,0 -4.43152,-2.60891 -9.32859,-5.48343 -11.4375,-10.4375 -2.0875,-5.9125 -1.39375,-13.3625 3.46875,-17.75 3.46641,-3.81094 8.15832,-4.51327 13.03125,-4.46875 1.21146,0.0938 2.45801,0.13131 3.71875,0.15625 0.0626,0.004 0.12495,-0.004 0.1875,0 2.51043,0.14482 4.9939,0.31611 7.3125,0.21875 6.42032,0.48007 10.83703,6.72433 14.0625,11.28125 3.22547,4.55692 7.69363,4.31252 12.84375,3.65625 5.15012,-0.65627 11.08645,-4.77208 13.03125,-10.21875 1.9448,-5.44667 0.11462,-12.28681 -2.40625,-16.28125 -2.52082,-3.99444 -5.69335,-9.03003 -14.375,-14 -7.05383,-4.03809 -20.76761,-7.15976 -29.96875,-7.125 z m -15.84375,91.875 c 0.76523,0.91117 1.62327,1.83307 2.625,2.75 -1.0167,-0.81521 -1.87672,-1.74863 -2.625,-2.75 z"
       style="fill:none;stroke:#ffffff;stroke-width:6;stroke-miterlimit:4;stroke-opacity:1;stroke-dasharray:none"
       inkscape:connector-curvature="0" />
    <path
       transform="scale(0.8,0.8)"
       id="rect3907"
       d="m 80,-271.21875 c -8.612051,0 -15.53125,7.90601 -15.53125,17.75 l 0,119.90625 c 0,9.84399 6.919199,17.75 15.53125,17.75 l 3.84375,0 c 8.612051,0 15.53125,-7.90601 15.53125,-17.75 l 0,-119.90625 c 0,-9.84399 -6.919199,-17.75 -15.53125,-17.75 l -3.84375,0 z"
       style="fill:none;stroke:#ffffff;stroke-width:6;stroke-miterlimit:4;stroke-opacity:1;stroke-dasharray:none"
       inkscape:connector-curvature="0" />
    <path
       transform="scale(0.8,0.8)"
       id="rect3909"
       d="m 137.59375,-272.34375 c -8.61205,0 -15.5625,7.09679 -15.5625,15.90625 l 0,123.59375 c 0,8.80946 6.95045,15.90625 15.5625,15.90625 l 3.8125,0 c 0.13735,0 0.26978,-0.0277 0.40625,-0.0312 0.23767,0.18121 0.49893,0.28125 0.75,0.28125 l 30.375,0 c 0.2069,0 0.42695,-0.0634 0.625,-0.1875 0.23184,0.0101 0.45311,0.0312 0.6875,0.0312 l 15.59375,0 c 29.28361,1.04829 43.94358,-27.92624 45.90625,-52.28125 0,0 1.70987,-39.2665 0.625,-48.4375 -1.08486,-9.17101 -8.14123,-53.70198 -46.84375,-54.21875 -10.0693,0.10562 -15.65625,0 -15.65625,0 -0.13876,0 -0.26839,0.0277 -0.40625,0.0312 -0.17303,-0.0939 -0.35167,-0.15625 -0.53125,-0.15625 l -27.90625,0 c -1.16822,-0.28499 -2.36908,-0.4375 -3.625,-0.4375 l -3.8125,0 z m 35.4375,35.9375 c 1.25652,0.17578 2.58452,0.26266 3.96875,0.21875 11.51992,-0.36542 26.59544,-0.84571 26.78125,40.53125 0.20542,45.74125 -13.91928,43.22003 -29.53125,43.53125 -0.26626,0 -0.51829,0.0183 -0.78125,0.0312 -0.16873,-0.0892 -0.35631,-0.125 -0.53125,-0.125 l -16,0 0,-84.15625 16,0 c 0.0321,0 0.0618,-0.0282 0.0937,-0.0312 z"
       style="fill:none;stroke:#ffffff;stroke-width:6;stroke-linecap:butt;stroke-linejoin:bevel;stroke-miterlimit:4;stroke-opacity:1;stroke-dasharray:none"
       inkscape:connector-curvature="0" />
    <path
       transform="scale(0.8,0.8)"
       id="rect3917"
       d="m 28.9375,-272.3125 c -3.08619,0.0668 -6.20022,1.02081 -8.9375,2.9375 l -60.28125,42.1875 0,-28.5 c 0,-8.82566 -6.7175,-15.9375 -15.0625,-15.9375 l -3.71875,0 c -8.345,0 -15.0625,7.11184 -15.0625,15.9375 l 0,123.84375 c 0,8.82566 6.7175,15.9375 15.0625,15.9375 l 3.71875,0 c 8.345,0 15.0625,-7.11184 15.0625,-15.9375 l 0,-31.125 60.46875,44.25 c 7.19122,5.2623 17.190899,3.75207 22.40625,-3.375 l 2,-2.75 c 5.215351,-7.12707 3.62872,-17.08145 -3.5625,-22.34375 l -65.5625,-47.96875 64.75,-45.3125 c 7.299412,-5.11116 9.096816,-15.04695 4.03125,-22.28125 l -1.9375,-2.78125 c -3.165979,-4.52143 -8.23135,-6.89251 -13.375,-6.78125 z"
       style="fill:none;stroke:#ffffff;stroke-width:6;stroke-miterlimit:4;stroke-opacity:1;stroke-dasharray:none"
       inkscape:connector-curvature="0" />
    <path
       transform="scale(0.8,0.8)"
       id="rect3965"
       d="m -62.375,-452.53125 c -8.104563,0 -14.65625,6.55169 -14.65625,14.65625 l 0,113.71875 c 0,8.10456 6.551687,14.625 14.65625,14.625 l 3.59375,0 c 8.104563,0 14.625,-6.52044 14.625,-14.625 l 0,-113.71875 c 0,-8.10456 -6.520437,-14.65625 -14.625,-14.65625 l -3.59375,0 z"
       style="fill:none;stroke:#ffffff;stroke-width:6;stroke-linecap:butt;stroke-linejoin:bevel;stroke-miterlimit:4;stroke-opacity:1;stroke-dasharray:none"
       inkscape:connector-curvature="0" />
  </g>
  <path
     style="fill:url(#linearGradient3126);fill-opacity:1"
     d="m 309.44212,2.0600364 c -3.59133,0.039024 -7.19875,0.28875 -10.75,0.525 -2.43,0.43 -4.77,1.14 -7.15,1.75 -5.44,1.01 -10.1,4.02 -14.5,7.2000006 -6.21,4.24 -10.37,11.06 -12.4,18.2 -1.29,7.18 -1.63,14.625 -0.75,21.875 1.74,2.85 3.89,5.775 7.15,6.975 3.1,1.08 6.47,0.85 9.7,0.75 4.16,-1 7.21,-4.11 9.6,-7.5 0.07,-4.48 -0.325,-9.065 0.975,-13.425 1.38,-4.42 4.86,-7.81 8.6,-10.35 4.41,-1.43 9.16,-1.68 13.75,-1.15 4.44,1.25 8.865,3.665 11.175,7.825 3.37,5.37 2.27,11.94 2.5,17.95 3.64,3.5 7.89,7.37 13.35,6.9 5.47,0.53 9.82,-3.155 13.3,-6.875 -0.08,-10.4 1.8,-21.835 -4.05,-31.125 -4.8,-8.63 -13.5,-14.4400006 -22.85,-17.1500006 -5.70625,-1.94375 -11.66446,-2.440039 -17.65,-2.375 z m -33.95,45.3250006 c 1.38,0.3 2.76,0.625 4.15,0.975 -0.17,1.49 -0.345,2.985 -0.525,4.475 -1.36,-0.09 -2.695,-0.21 -4.025,-0.45 -1.36,-1.55 -0.15,-3.4 0.4,-5 z"
     id="path3400"
     inkscape:connector-curvature="0" />
  <path
     d="m 45.302351,10.427173 c 3.62,-5.2800003 10.8,-8.6800003 17.05,-6.3200003 4.75,1.58 7.14,6.3000003 10.1,9.9400003 13.22,17.16 26.22,34.47 39.669999,51.45 8.53,12.14 18.16,23.48 26.72,35.600007 0.62,3.94 0.32,8.38 -2.28,11.6 -3.14,3.74 -7.88,6.51 -12.91,5.9 -4.97,0.16 -8.58,-3.75 -11.36,-7.36 C 98.392351,92.857173 84.292351,74.647173 70.262351,56.387173 c -6.43,-8.9 -13.37,-17.4 -19.92,-26.2 -2.1,-2.82 -4.47,-5.43 -6.99,-7.88 -0.11,-4.01 -0.42,-8.4 1.95,-11.88 z"
     id="path3408"
     inkscape:connector-curvature="0"
     style="fill:#e93a96" />
  <path
     d="m 112.33235,14.747173 c 0.19,-5.2700003 4.39,-9.8300003 9.48,-10.8800003 7.39,-2.14 16.92,2.54 17.08,10.8900003 0.07,28.78 0.15,57.56 -0.05,86.340007 -8.56,-12.120007 -18.19,-23.460007 -26.72,-35.600007 0.4,-16.91 -0.01,-33.84 0.21,-50.75 z"
     id="path3410"
     inkscape:connector-curvature="0"
     style="fill:#9a1d57" />
  <path
     d="m 156.22235,11.397173 c 3.87,-6.2500003 12.87,-9.4900003 19.41,-5.5000003 4.01,3.02 6.51,7.5100003 9.64,11.3400003 12.72,16.29 25.01,32.9 37.8,49.12 8.79,11.77 17.68,23.48 26.88,34.930007 0.77,4.45 0.19,9.47 -2.88,12.99 -3.9,4.06 -10.04,6.49 -15.58,4.58 -4.87,-1.68 -7.7,-6.28 -10.69,-10.16 -13.24,-17.360007 -26.57,-34.640007 -39.82,-52.000007 -8.76,-11.47 -17.36,-23.07 -26.48,-34.26 -0.63,-3.72 -0.22,-7.75 1.72,-11.04 z"
     id="path3412"
     inkscape:connector-curvature="0"
     style="fill:#e93a96" />
  <path
     d="m 223.21235,16.787173 c -0.24,-5.56 3.89,-11.0600003 9.42,-12.0700003 5.36,-1 12.08,-0.24 15.25,4.77 2.88,3.8600003 2.22,8.8300003 2.25,13.3400003 -0.14,26.15 0.22,52.31 -0.18,78.460007 -9.2,-11.450007 -18.09,-23.160007 -26.88,-34.930007 0.32,-16.52 0.06,-33.04 0.14,-49.57 z"
     id="path3416"
     inkscape:connector-curvature="0"
     style="fill:#9a1d56" />
  <path
     d="m 55.242351,15.407173 c 1.45,-0.09 2.91,-0.17 4.37,-0.25 0.3,1.23 0.59,2.47 0.87,3.7 -0.72,0.43 -2.15,1.27 -2.86,1.7 -0.66,-0.28 -1.97,-0.85 -2.63,-1.13 0.07,-1.34 0.16,-2.68 0.25,-4.02 z"
     id="path3424"
     inkscape:connector-curvature="0"
     style="fill:#0b0a0b" />
  <path
     d="m 165.98235,16.257173 c 1.68,-0.08 3.36,-0.14 5.04,-0.18 0.35,1.99 -0.41,3.8 -1.45,5.45 -1.07,-0.18 -2.13,-0.35 -3.18,-0.51 -0.16,-1.59 -0.29,-3.17 -0.41,-4.76 z"
     id="path3426"
     inkscape:connector-curvature="0"
     style="fill:#0e0610" />
  <path
     d="m 43.352351,22.307173 c 2.52,2.45 4.89,5.06 6.99,7.88 6.55,8.8 13.49,17.3 19.92,26.2 -0.24,16.82 -0.04,33.66 -0.11,50.490007 -0.03,4.13 -2.16,8.45 -5.95,10.37 -5.92,3 -14.48,2.37 -18.5,-3.41 -1.95,-2.55 -2.49,-5.85 -2.39,-8.98 0.06,-27.520007 -0.03,-55.030007 0.04,-82.550007 z"
     id="path3430"
     inkscape:connector-curvature="0"
     style="fill:#9a1d56" />
  <path
     d="m 154.50235,22.437173 c 9.12,11.19 17.72,22.79 26.48,34.26 0.07,16.73 -0.03,33.45 0.05,50.180007 0.05,2.33 -0.27,4.75 -1.52,6.77 -4.06,7.09 -14.7,7.82 -20.82,3.16 -3.57,-2.81 -4.51,-7.66 -4.37,-11.96 0.16,-27.470007 -0.19,-54.940007 0.18,-82.410007 z"
     id="path3432"
     inkscape:connector-curvature="0"
     style="fill:#9a1d57" />
  <path
     d="m 275.08235,52.377173 c -1.36,-1.55 -0.14,-3.39 0.41,-4.99 1.38,0.3 2.77,0.62 4.16,0.97 -0.17,1.49 -0.35,2.98 -0.53,4.47 -1.36,-0.09 -2.71,-0.21 -4.04,-0.45 z"
     id="path3436"
     inkscape:connector-curvature="0"
     style="fill:#070807" />
  <path
     d="m 338.15235,48.597173 c 0.63,-0.33 1.88,-0.99 2.5,-1.32 0.7,0.4 2.11,1.21 2.81,1.61 -0.22,1.25 -0.57,2.45 -1.07,3.61 -1.4,0.15 -2.81,0.04 -4.2,-0.03 -0.02,-1.29 -0.03,-2.58 -0.04,-3.87 z"
     id="path3438"
     inkscape:connector-curvature="0"
     style="fill:#08090a" />
  <path
     d="m 263.90235,51.607173 c 1.74,2.85 3.89,5.78 7.15,6.98 3.1,1.08 6.45,0.85 9.68,0.75 4.16,-1 7.22,-4.1 9.61,-7.49 -0.08,6.69 -0.14,13.38 -0.03,20.07 -1.69,-3.05 -3.95,-6.05 -7.25,-7.45 -3.67,-1.59 -7.83,-1.17 -11.59,-0.17 -3.27,1.22 -5.58,4.02 -7.57,6.75 -0.03,-6.48 -0.02,-12.96 0,-19.44 z"
     id="path3440"
     inkscape:connector-curvature="0"
     style="fill:#908c32" />
  <path
     d="m 327.35235,52.687173 c 3.64,3.5 7.87,7.36 13.33,6.89 5.47,0.53 9.84,-3.14 13.32,-6.86 -0.1,6.09 0.08,12.18 -0.11,18.28 -3.01,-4.83 -8.36,-8.3 -14.21,-7.56 -5.25,-0.09 -9.09,3.8 -12.31,7.42 0.02,-6.05 0.01,-12.11 -0.02,-18.17 z"
     id="path3442"
     inkscape:connector-curvature="0"
     style="fill:#918c31" />
  <path
     style="fill:url(#linearGradient3135);fill-opacity:1"
     d="m 340.76712,63.335037 c -0.36127,0.01406 -0.70938,0.05375 -1.075,0.1 -5.25,-0.09 -9.105,3.805 -12.325,7.425 -0.19,4.85 0.455,9.895 -1.125,14.575 -1.82,5.16 -6.48,8.8 -11.5,10.6 -5.81,0.87 -11.9,0.23 -17.15,-2.5 -3.01,-2.65 -5.71,-5.95 -6.55,-9.95 -0.81,-3.84 -0.575,-7.785 -0.725,-11.675 -1.69,-3.05 -3.95,-6.05 -7.25,-7.45 -3.67,-1.59 -7.84,-1.175 -11.6,-0.175 -3.27,1.22 -5.585,4.02 -7.575,6.75 -0.51,9.25 -1.36,19.175 2.85,27.775 3.4,7.750003 9.795,14.325003 17.825,17.225003 2.6,1.69 5.695,2.325 8.625,3.225 9.01,2.31 18.56,2.84 27.7,0.9 11.42,-2.09 23.115,-7.715 28.825,-18.325 5.7,-9.240003 4.615,-20.510003 4.175,-30.850003 -2.82187,-4.528125 -7.70596,-7.860828 -13.125,-7.65 z m -65.15,9.05 c 1.26,0.35 2.515,0.69 3.775,1.05 0,1.3 -0.015,2.615 -0.025,3.925 -1.23,0.27 -2.455,0.515 -3.675,0.775 -1.63,-1.75 -1.035,-3.84 -0.075,-5.75 z"
     id="path3444"
     inkscape:connector-curvature="0" />
  <path
     d="m 275.69235,78.147173 c -1.63,-1.75 -1.04,-3.85 -0.08,-5.76 1.26,0.35 2.52,0.69 3.78,1.05 0,1.3 -0.01,2.61 -0.02,3.92 -1.23,0.27 -2.46,0.53 -3.68,0.79 z"
     id="path3450"
     inkscape:connector-curvature="0"
     style="fill:#08060c" />
  <path
     d="m 337.95235,77.037173 c -0.06,-2.15 0.91,-3.98 2.73,-5.14 1.59,1.23 2.6,2.87 2.76,4.89 -0.69,0.39 -2.07,1.16 -2.76,1.54 -0.68,-0.32 -2.05,-0.97 -2.73,-1.29 z"
     id="path3452"
     inkscape:connector-curvature="0"
     style="fill:#06080c" />
  <path
     d="m 122.28235,102.41718 c 1.59,0.22 3.69,-0.6 4.82,0.91 0.16,1.33 0.13,2.67 0.15,4.01 -1.7,0.01 -3.39,-0.01 -5.08,-0.05 0,-1.62 0.03,-3.25 0.11,-4.87 z"
     id="path3456"
     inkscape:connector-curvature="0"
     style="fill:#0e060f" />
  <path
     d="m 233.33235,103.37718 c 1.57,-0.02 3.15,-0.03 4.74,-0.02 0.1,1.5 0.18,3 0.27,4.5 -1.76,0.25 -3.52,0.25 -5.26,-0.02 0.07,-1.49 0.15,-2.97 0.25,-4.46 z"
     id="path3458"
     inkscape:connector-curvature="0"
     style="fill:#09090c" />
  <path
     d="m 272.60235,157.74718 c 8.08,-8.85 20.47,-12.94 32.28,-12.06 -3.91,2.15 -7.91,5.14 -8.65,9.88 -0.07,2.03 -0.01,4.07 0.16,6.1 0.52,2.77 0.62,6.6 3.65,7.88 4.87,1.19 10.07,0.13 14.87,1.84 -6.43,0.27 -14.46,-2.14 -19.39,3.28 -3.89,3.51 -4.45,9.46 -2.78,14.19 1.69,3.97 5.61,6.26 9.16,8.35 -1.89,1.71 -3.83,3.38 -5.64,5.17 -3.39,5.86 -2.88,14.14 2.62,18.55 5.87,1.65 12.01,0.97 18,1.65 -9.99,-0.68 -20.45,1.12 -29.95,-2.88 -8.94,-3.15 -16.44,-9.91 -20.37,-18.54 -6.01,-14.07 -4.14,-31.73 6.04,-43.41 z"
     id="path3462"
     inkscape:connector-curvature="0"
     style="fill:#95ce70" />
  <path
     style="fill:url(#linearGradient3233);fill-opacity:1"
     d="m 305.05662,145.68504 c -6.43115,1.57095 -8.32664,5.90914 -9.47248,8.31231 -1.14583,2.40318 -0.93565,5.09515 -0.59021,7.49819 0.34544,2.40305 1.08606,5.81375 4.88369,8.0395 3.79764,2.22575 9.90324,1.46594 15.0395,1.85 5.13626,0.38406 8.66962,5.37946 11.25,9.025 2.58038,3.64554 6.1549,3.45002 10.275,2.925 4.1201,-0.52502 8.86916,-3.81766 10.425,-8.175 1.55584,-4.35734 0.0917,-9.82945 -1.925,-13.025 -2.01666,-3.19555 -4.56522,-7.23636 -11.51054,-11.21234 -6.94531,-3.97597 -21.94382,-6.80861 -28.37496,-5.23766 z m 1.6105,9.7 c 1.41202,-0.12491 2.69706,0.17391 3.125,1.525 0.42794,1.35109 0.78057,4.10197 -0.975,4.875 -1.75557,0.77303 -5.34322,-1.11837 -5.65,-3 -0.30678,-1.88163 2.08798,-3.27509 3.5,-3.4 z"
     id="path3464"
     inkscape:connector-curvature="0"
     sodipodi:nodetypes="zzzzzzzzzzzzzzzz" />
  <rect
     ry="14.215144"
     rx="12.436175"
     y="148.85153"
     x="115.90711"
     height="124.33457"
     width="27.933954"
     id="rect3167"
     style="fill:url(#linearGradient3169);fill-opacity:1;stroke:none" />
  <rect
     ry="3.128722"
     rx="12.659105"
     y="-205.82628"
     x="148.30521"
     height="30.579441"
     width="28.434696"
     id="rect3216"
     style="fill:#7c277c;fill-opacity:1;stroke:#cccccc;stroke-width:0.50145084;stroke-linecap:butt;stroke-linejoin:bevel;stroke-miterlimit:4;stroke-opacity:1;stroke-dasharray:none"
     transform="matrix(0,1,-1,0,0,0)" />
  <rect
     transform="matrix(0,1,-1,0,0,0)"
     style="fill:#7c277c;fill-opacity:1;stroke:#cccccc;stroke-width:0.50145084;stroke-linecap:butt;stroke-linejoin:bevel;stroke-miterlimit:4;stroke-opacity:1;stroke-dasharray:none"
     id="rect3220"
     width="28.434696"
     height="30.579441"
     x="244.05229"
     y="-205.82628"
     rx="12.659105"
     ry="3.128722" />
  <rect
     style="fill:url(#linearGradient3186);fill-opacity:1;stroke:none"
     id="rect3184"
     width="27.933954"
     height="124.33457"
     x="161.96268"
     y="147.94989"
     rx="12.436175"
     ry="12.721236" />
  <path
     style="fill:url(#linearGradient3214);fill-opacity:1;stroke:none"
     d="m 215.97031,148.41004 c -8.05544,0.0845 -12.52819,0 -12.52819,0 -6.96031,0 -12.55,5.61358 -12.55,12.575 l 0,3.1 c 0,6.96142 5.8239,13.09133 15.03985,12.79898 9.21594,-0.29234 21.29194,-0.67918 21.44059,32.42239 0.16434,36.593 -11.14086,34.57965 -23.63044,34.82863 -6.96031,0 -12.575,5.58858 -12.575,12.55 l 0,3.1 c 0,6.96142 5.61469,12.575 12.575,12.575 l 12.47718,0 c 23.42689,0.83863 35.15166,-22.34757 36.7218,-41.83158 0,0 1.36587,-31.41223 0.49797,-38.74903 -0.86789,-7.33681 -6.50674,-42.95597 -37.46876,-43.36939 z"
     id="rect3201"
     inkscape:connector-curvature="0"
     sodipodi:nodetypes="cssszscssscczc" />
  <rect
     style="fill:url(#linearGradient3149);fill-opacity:1;stroke:none"
     id="rect3147"
     width="28.221272"
     height="101.77236"
     x="-171.04369"
     y="136.00238"
     rx="12.753036"
     ry="12.867827"
     transform="matrix(0.59054118,-0.8070075,0.8070075,0.59054118,0,0)" />
  <rect
     transform="matrix(-0.57358083,-0.81914897,0.81914897,-0.57358083,0,0)"
     ry="12.867827"
     rx="12.753036"
     y="-109.33117"
     x="-197.44023"
     height="101.77236"
     width="28.221272"
     id="rect3157"
     style="fill:url(#linearGradient3159);fill-opacity:1;stroke:none" />
  <path
     d="m 303.17235,158.77718 c 1.09,-1.19 1.97,-2.72 3.5,-3.4 1.07,0.45 2.11,0.96 3.13,1.54 -0.32,1.63 -0.65,3.25 -0.98,4.88 -2.1,-0.56 -4.11,-1.45 -5.65,-3.02 z"
     id="path3508"
     inkscape:connector-curvature="0"
     style="fill:#070502" />
  <path
     d="m 127.93235,164.38718 c -0.69,-2.49 -0.24,-4.94 1.37,-6.97 1.2,0.91 2.43,1.77 3.66,2.65 -0.13,1.11 -0.26,2.21 -0.39,3.32 -1.55,0.33 -3.09,0.67 -4.64,1 z"
     id="path3510"
     inkscape:connector-curvature="0"
     style="fill:#070606" />
  <path
     d="m 173.58235,159.81718 c 1.47,-0.38 2.94,-0.74 4.42,-1.1 0.67,2.03 0.78,4.21 0.07,6.25 -1.6,-0.38 -3.2,-0.75 -4.79,-1.14 0.05,-1.35 0.15,-2.68 0.3,-4.01 z"
     id="path3514"
     inkscape:connector-curvature="0"
     style="fill:#040a08" />
  <path
     d="m 199.08235,159.22718 c 1.37,0.01 2.78,-0.17 4.13,0.19 1.87,1.16 0.61,3.57 0.59,5.28 -1.59,-0.3 -3.9,0.53 -4.75,-1.31 -0.15,-1.39 -0.03,-2.78 0.03,-4.16 z"
     id="path3516"
     inkscape:connector-curvature="0"
     style="fill:#020b09" />
  <path
     style="fill:url(#linearGradient3248);fill-opacity:1"
     d="m 311.99212,197.11004 c -3.42766,-0.007 -6.835,0.1 -10.1,0.1 -1.89,1.71 -3.75353,1.3229 -6.62094,6.17094 -2.8674,4.84803 -3.37296,11.15219 3.62094,17.55406 5.87,1.65 13.5393,0.79507 18,1.65 4.4607,0.85493 4.8455,1.65046 7.55,4.85 2.7045,3.19954 2.28926,11.82805 0.2,15.125 -2.08926,3.29695 -3.16838,3.44919 -5.725,4.725 -2.55662,1.27581 -6.055,1.33 -9.125,1.4 1.34,1.24 2.69,2.475 3.95,3.825 1.61,4.41 2.03,9.41 0.5,13.9 -1.17,3.18 -4.085,5.225 -6.725,7.125 5.39,0.18 11.0268,-0.30682 18.62874,-1.81898 7.60195,-1.51217 19.46124,-8.381 23.34626,-15.08102 3.88502,-6.70002 3.97138,-8.47582 4.75,-13.675 0.77862,-5.19918 0.74042,-11.94316 -0.35,-16.775 -1.09042,-4.83184 -2.4318,-8.54518 -4.725,-12 -2.2932,-3.45482 -2.64342,-4.48417 -8.625,-8.8 -5.98158,-4.31583 -18.26703,-8.2525 -28.55,-8.275 z m -7.475,9.65 c 1.11656,-0.16641 2.37,0.7975 3.45,1.15 -0.45,1.68 -0.935,3.37 -1.425,5.05 -1.79,-0.69 -3.575,-1.395 -5.325,-2.175 0.71,-1.16 1.38,-2.34 2.25,-3.4 0.335,-0.37 0.67782,-0.56953 1.05,-0.625 z"
     id="path3526"
     inkscape:connector-curvature="0"
     sodipodi:nodetypes="sczczzzzcccczzzzzzssccccs" />
  <path
     d="m 303.46235,207.37718 c 1.34,-1.48 3.06,0.07 4.5,0.54 -0.45,1.68 -0.92,3.36 -1.41,5.04 -1.79,-0.69 -3.59,-1.38 -5.34,-2.16 0.71,-1.16 1.38,-2.36 2.25,-3.42 z"
     id="path3532"
     inkscape:connector-curvature="0"
     style="fill:#010a04" />
  <rect
     ry="12.744637"
     rx="12.050541"
     y="148.5381"
     x="5.0408807"
     height="124.56331"
     width="27.067751"
     id="rect3137"
     style="fill:url(#linearGradient3139);fill-opacity:1;stroke:none" />
  <path
     style="fill:url(#linearGradient3263);fill-opacity:1"
     d="m 271.3415,235.48707 c -3.8022,1.50796 -4.80118,3.06499 -6.27641,6.58211 -1.47523,3.51712 -1.99411,8.79289 0.077,12.91586 2.57619,5.05716 7.9599,12.45996 15.7,15.65 7.74009,3.19004 20.68478,3.98301 26.675,2.9 5.99021,-1.08301 7.11779,-4.53465 8.46789,-8.36992 1.35009,-3.83527 1.2076,-7.7358 -0.25102,-10.66321 -1.45862,-2.92741 -3.29222,-5.12658 -5.94187,-5.81687 -2.64966,-0.69029 -7.52991,0.19501 -10.95,-0.225 -3.4201,-0.42001 -6.25141,-1.14388 -9,-3.2 -2.74859,-2.05612 -3.85307,-6.95906 -6.27907,-8.3 -3.9724,-2.96054 -8.41941,-2.98093 -12.2216,-1.47297 z m 34.07562,22.29797 c 1.34698,-0.74684 3.3435,-0.005 4.1,1.3 0.7565,1.30496 1.03602,3.81117 -0.475,4.7 -1.51102,0.88883 -4.69023,0.14153 -5.55,-1.425 -0.85977,-1.56653 0.57802,-3.82816 1.925,-4.575 z"
     id="path3556"
     inkscape:connector-curvature="0"
     sodipodi:nodetypes="zzczzzzzzzczszzzs" />
  <path
     d="m 174.03235,256.60718 c 1.1,-0.02 2.22,-0.07 3.32,0.06 1.04,0.96 1.7,2.24 2.48,3.42 -1.13,0.9 -2.25,1.81 -3.37,2.72 -0.98,-0.66 -1.96,-1.32 -2.94,-1.97 0.19,-1.41 0.36,-2.82 0.51,-4.23 z"
     id="path3574"
     inkscape:connector-curvature="0"
     style="fill:#04060a" />
  <path
     d="m 199.93235,256.83718 c 1.92,-1.77 5.05,0.64 4.34,3.04 0.2,2.48 -3.21,2.34 -4.91,2.59 -0.05,-1.82 -1.36,-4.36 0.57,-5.63 z"
     id="path3576"
     inkscape:connector-curvature="0"
     style="fill:#05060e" />
  <path
     d="m 127.61235,257.64718 c 1.83,0.22 3.67,0.45 5.51,0.67 -0.54,1.97 -1.24,3.9 -1.81,5.87 -1.47,-0.86 -2.93,-1.73 -4.37,-2.61 0.22,-1.32 0.44,-2.62 0.67,-3.93 z"
     id="path3578"
     inkscape:connector-curvature="0"
     style="fill:#050902" />
  <path
     d="m 305.41235,257.77718 c 1.37,0.4 2.75,0.8 4.1,1.3 -0.15,1.57 -0.31,3.13 -0.47,4.71 -1.88,-0.38 -3.75,-0.81 -5.56,-1.42 0.63,-1.54 1.28,-3.07 1.93,-4.59 z"
     id="path3580"
     inkscape:connector-curvature="0"
     style="fill:#0c0506" />
  <path
     sodipodi:type="arc"
     style="fill:#155e74;fill-opacity:1"
     id="path3590"
     sodipodi:cx="227.22108"
     sodipodi:cy="392.51358"
     sodipodi:rx="5.8141589"
     sodipodi:ry="5.5797172"
     d="m 233.03524,392.51358 a 5.8141589,5.5797172 0 1 1 -11.62831,0 5.8141589,5.5797172 0 1 1 11.62831,0 z"
     transform="matrix(0.8,0,0,0.8,-164.31765,-104.17282)" />
  <path
     transform="matrix(0.8,0,0,0.8,-51.860569,-53.495871)"
     sodipodi:type="arc"
     style="fill:#550000;fill-opacity:1"
     id="path3590-3"
     sodipodi:cx="227.22108"
     sodipodi:cy="392.51358"
     sodipodi:rx="5.8141589"
     sodipodi:ry="5.5797172"
     d="m 233.03524,392.51358 a 5.8141589,5.5797172 0 1 1 -11.62831,0 5.8141589,5.5797172 0 1 1 11.62831,0 z" />
  <path
     transform="matrix(0.8,0,0,0.8,-51.560489,-152.89923)"
     sodipodi:type="arc"
     style="fill:#550000;fill-opacity:1"
     id="path3590-5"
     sodipodi:cx="227.22108"
     sodipodi:cy="392.51358"
     sodipodi:rx="5.8141589"
     sodipodi:ry="5.5797172"
     d="m 233.03524,392.51358 a 5.8141589,5.5797172 0 1 1 -11.62831,0 5.8141589,5.5797172 0 1 1 11.62831,0 z" />
  <path
     transform="matrix(0.8,0,0,0.8,-5.7224088,-152.22404)"
     sodipodi:type="arc"
     style="fill:#5e005f;fill-opacity:1"
     id="path3590-2"
     sodipodi:cx="227.22108"
     sodipodi:cy="392.51358"
     sodipodi:rx="5.8141589"
     sodipodi:ry="5.5797172"
     d="m 233.03524,392.51358 a 5.8141589,5.5797172 0 1 1 -11.62831,0 5.8141589,5.5797172 0 1 1 11.62831,0 z" />
  <path
     transform="matrix(0.8,0,0,0.8,19.634831,-152.22404)"
     sodipodi:type="arc"
     style="fill:#5e005f;fill-opacity:1"
     id="path3590-1"
     sodipodi:cx="227.22108"
     sodipodi:cy="392.51358"
     sodipodi:rx="5.8141589"
     sodipodi:ry="5.5797172"
     d="m 233.03524,392.51358 a 5.8141589,5.5797172 0 1 1 -11.62831,0 5.8141589,5.5797172 0 1 1 11.62831,0 z" />
  <path
     transform="matrix(0.8,0,0,0.8,19.709851,-54.396127)"
     sodipodi:type="arc"
     style="fill:#5e005f;fill-opacity:1"
     id="path3590-9"
     sodipodi:cx="227.22108"
     sodipodi:cy="392.51358"
     sodipodi:rx="5.8141589"
     sodipodi:ry="5.5797172"
     d="m 233.03524,392.51358 a 5.8141589,5.5797172 0 1 1 -11.62831,0 5.8141589,5.5797172 0 1 1 11.62831,0 z" />
  <path
     transform="matrix(0.8,0,0,0.8,-5.5723588,-54.171063)"
     sodipodi:type="arc"
     style="fill:#5e005f;fill-opacity:1"
     id="path3590-0"
     sodipodi:cx="227.22108"
     sodipodi:cy="392.51358"
     sodipodi:rx="5.8141589"
     sodipodi:ry="5.5797172"
     d="m 233.03524,392.51358 a 5.8141589,5.5797172 0 1 1 -11.62831,0 5.8141589,5.5797172 0 1 1 11.62831,0 z" />
  <path
     transform="matrix(0.8,0,0,0.8,124.66479,-52.820678)"
     sodipodi:type="arc"
     style="fill:#0c6f3e;fill-opacity:1"
     id="path3590-03"
     sodipodi:cx="227.22108"
     sodipodi:cy="392.51358"
     sodipodi:rx="5.8141589"
     sodipodi:ry="5.5797172"
     d="m 233.03524,392.51358 a 5.8141589,5.5797172 0 1 1 -11.62831,0 5.8141589,5.5797172 0 1 1 11.62831,0 z" />
  <path
     transform="matrix(0.8,0,0,0.8,125.18995,-155.22489)"
     sodipodi:type="arc"
     style="fill:#0c6f3e;fill-opacity:1"
     id="path3590-95"
     sodipodi:cx="227.22108"
     sodipodi:cy="392.51358"
     sodipodi:rx="5.8141589"
     sodipodi:ry="5.5797172"
     d="m 233.03524,392.51358 a 5.8141589,5.5797172 0 1 1 -11.62831,0 5.8141589,5.5797172 0 1 1 11.62831,0 z" />
  <path
     transform="matrix(0.8,0,0,0.8,122.71424,-103.91025)"
     sodipodi:type="arc"
     style="fill:#0c6f3e;fill-opacity:1"
     id="path3590-7"
     sodipodi:cx="227.22108"
     sodipodi:cy="392.51358"
     sodipodi:rx="5.8141589"
     sodipodi:ry="5.5797172"
     d="m 233.03524,392.51358 a 5.8141589,5.5797172 0 1 1 -11.62831,0 5.8141589,5.5797172 0 1 1 11.62831,0 z" />
  <rect
     style="fill:url(#linearGradient3117);fill-opacity:1;stroke:none;stroke-width:0.93250935999999995;stroke-linecap:butt;stroke-linejoin:bevel;stroke-miterlimit:4;stroke-opacity:1;stroke-dasharray:none"
     id="rect3093"
     width="26.28787"
     height="114.38589"
     x="2.720711"
     y="3.8201506"
     rx="11.70334"
     ry="11.70334" />
  <path
     transform="matrix(0.8,0,0,0.8,-166.20826,-207.89307)"
     sodipodi:type="arc"
     style="fill:#550000;fill-opacity:1"
     id="path3590-57"
     sodipodi:cx="227.22108"
     sodipodi:cy="392.51358"
     sodipodi:rx="5.8141589"
     sodipodi:ry="5.5797172"
     d="m 233.03524,392.51358 a 5.8141589,5.5797172 0 1 1 -11.62831,0 5.8141589,5.5797172 0 1 1 11.62831,0 z" />
  <path
     transform="matrix(0.8,0,0,0.8,-166.4735,-299.18893)"
     sodipodi:type="arc"
     style="fill:#550000;fill-opacity:1"
     id="path3590-4"
     sodipodi:cx="227.22108"
     sodipodi:cy="392.51358"
     sodipodi:rx="5.8141589"
     sodipodi:ry="5.5797172"
     d="m 233.03524,392.51358 a 5.8141589,5.5797172 0 1 1 -11.62831,0 5.8141589,5.5797172 0 1 1 11.62831,0 z" />
  <path
     transform="matrix(0.8,0,0,0.8,-124.24718,-296.85481)"
     sodipodi:type="arc"
     style="fill:#9a1d56;fill-opacity:1"
     id="path3590-07"
     sodipodi:cx="227.22108"
     sodipodi:cy="392.51358"
     sodipodi:rx="5.8141589"
     sodipodi:ry="5.5797172"
     d="m 233.03524,392.51358 a 5.8141589,5.5797172 0 1 1 -11.62831,0 5.8141589,5.5797172 0 1 1 11.62831,0 z" />
  <path
     transform="matrix(0.8,0,0,-0.8,-56.982129,419.06769)"
     sodipodi:type="arc"
     style="fill:#9a1d57;fill-opacity:1"
     id="path3590-91"
     sodipodi:cx="227.22108"
     sodipodi:cy="392.51358"
     sodipodi:rx="5.8141589"
     sodipodi:ry="5.5797172"
     d="m 233.03524,392.51358 a 5.8141589,5.5797172 0 1 1 -11.62831,0 5.8141589,5.5797172 0 1 1 11.62831,0 z" />
  <path
     transform="matrix(0.8,0,0,0.8,-12.849439,-295.28985)"
     sodipodi:type="arc"
     style="fill:#9a1d57;fill-opacity:1"
     id="path3590-8"
     sodipodi:cx="227.22108"
     sodipodi:cy="392.51358"
     sodipodi:rx="5.8141589"
     sodipodi:ry="5.5797172"
     d="m 233.03524,392.51358 a 5.8141589,5.5797172 0 1 1 -11.62831,0 5.8141589,5.5797172 0 1 1 11.62831,0 z" />
  <path
     transform="matrix(0.8,0,0,0.8,53.769561,-207.36476)"
     sodipodi:type="arc"
     style="fill:#9a1d56;fill-opacity:1"
     id="path3590-05"
     sodipodi:cx="227.22108"
     sodipodi:cy="392.51358"
     sodipodi:rx="5.8141589"
     sodipodi:ry="5.5797172"
     d="m 233.03524,392.51358 a 5.8141589,5.5797172 0 1 1 -11.62831,0 5.8141589,5.5797172 0 1 1 11.62831,0 z" />
  <path
     transform="matrix(0.8,0,0,0.8,95.481471,-238.72371)"
     sodipodi:type="arc"
     style="fill:#908c32;fill-opacity:1"
     id="path3590-50"
     sodipodi:cx="227.22108"
     sodipodi:cy="392.51358"
     sodipodi:rx="5.8141589"
     sodipodi:ry="5.5797172"
     d="m 233.03524,392.51358 a 5.8141589,5.5797172 0 1 1 -11.62831,0 5.8141589,5.5797172 0 1 1 11.62831,0 z" />
  <path
     transform="matrix(0.8,0,0,0.8,95.331421,-263.63082)"
     sodipodi:type="arc"
     style="fill:#908c32;fill-opacity:1"
     id="path3590-38"
     sodipodi:cx="227.22108"
     sodipodi:cy="392.51358"
     sodipodi:rx="5.8141589"
     sodipodi:ry="5.5797172"
     d="m 233.03524,392.51358 a 5.8141589,5.5797172 0 1 1 -11.62831,0 5.8141589,5.5797172 0 1 1 11.62831,0 z" />
  <path
     transform="matrix(0.8,0,0,0.8,158.79953,-263.78086)"
     sodipodi:type="arc"
     style="fill:#908c32;fill-opacity:1"
     id="path3590-75"
     sodipodi:cx="227.22108"
     sodipodi:cy="392.51358"
     sodipodi:rx="5.8141589"
     sodipodi:ry="5.5797172"
     d="m 233.03524,392.51358 a 5.8141589,5.5797172 0 1 1 -11.62831,0 5.8141589,5.5797172 0 1 1 11.62831,0 z" />
  <path
     transform="matrix(0.8,0,0,0.8,158.49945,-239.0238)"
     sodipodi:type="arc"
     style="fill:#908c32;fill-opacity:1"
     id="path3590-6"
     sodipodi:cx="227.22108"
     sodipodi:cy="392.51358"
     sodipodi:rx="5.8141589"
     sodipodi:ry="5.5797172"
     d="m 233.03524,392.51358 a 5.8141589,5.5797172 0 1 1 -11.62831,0 5.8141589,5.5797172 0 1 1 11.62831,0 z" />
</svg>
